<svg width="420" height="260" viewBox="0 0 420 260" fill="none" xmlns="http://www.w3.org/2000/svg">
  <defs>
    <linearGradient id="anaB-cone" x1="232" y1="36" x2="344" y2="228" gradientUnits="userSpaceOnUse">
      <stop offset="0" stop-color="#FFF2DD"/>
      <stop offset="0.56" stop-color="#FFC789"/>
      <stop offset="1" stop-color="#C96592"/>
    </linearGradient>
  </defs>

  <g fill="none" stroke-linecap="round" stroke-linejoin="round">
    <path d="M286 42L234 126H338L286 42Z" stroke="url(#anaB-cone)" stroke-width="1.66"/>
    <path d="M286 218L234 134H338L286 218Z" stroke="url(#anaB-cone)" stroke-width="1.66"/>

    <ellipse cx="286" cy="126" rx="52" ry="12" stroke="#FFE8C8" stroke-opacity="0.68" stroke-width="1.08"/>
    <ellipse cx="286" cy="134" rx="52" ry="12" stroke="#FFE8C8" stroke-opacity="0.52" stroke-width="1.02"/>

    <path d="M166 98L394 136" stroke="#FFE2BE" stroke-opacity="0.64" stroke-width="1.16"/>
    <path d="M164 158L392 196" stroke="#FFD3A8" stroke-opacity="0.56" stroke-width="1.06"/>

    <path d="M192 198C232 150 256 132 286 128C316 124 340 138 382 192" stroke="#FFB67E" stroke-opacity="0.86" stroke-width="2.08"/>
    <path d="M192 78C232 126 256 144 286 148C316 152 340 138 382 84" stroke="#FFEBD4" stroke-opacity="0.62" stroke-width="1.14"/>

    <path d="M286 42V218" stroke="#FFEBD5" stroke-opacity="0.42" stroke-width="1"/>
  </g>
</svg>
