<svg width="420" height="260" viewBox="0 0 420 260" fill="none" xmlns="http://www.w3.org/2000/svg">
  <path d="M164 72L350 114L322 224L136 182L164 72Z" fill="#AD94FF" fill-opacity="0.11" stroke="#C6AEFF" stroke-opacity="0.42" stroke-width="1.18"/>

  <g fill="none" stroke-linecap="round">
    <path d="M122 200C182 140 226 126 278 148C324 168 358 160 404 116" stroke="#66D5FF" stroke-opacity="0.58" stroke-width="1.64"/>
    <path d="M122 172C178 116 224 98 278 122C324 144 360 138 406 94" stroke="#A498FF" stroke-opacity="0.58" stroke-width="1.74"/>
    <path d="M198 214C232 160 260 130 298 112C334 96 364 96 396 122" stroke="#D6F1FF" stroke-opacity="0.56" stroke-width="1.46"/>
    <path d="M194 72C228 126 260 152 298 166C334 180 366 174 398 146" stroke="#8CD9FF" stroke-opacity="0.48" stroke-width="1.28"/>
    <path d="M110 132H408" stroke="#90BAEE" stroke-opacity="0.34" stroke-width="1.1"/>
    <path d="M266 34V230" stroke="#90BAEE" stroke-opacity="0.34" stroke-width="1.1"/>
    <path d="M146 60L390 214" stroke="#6ED6FF" stroke-opacity="0.31" stroke-width="1.04" stroke-dasharray="4 8"/>
  </g>

  <circle cx="278" cy="122" r="2.9" fill="#E0F6FF" fill-opacity="0.84"/>
  <circle cx="324" cy="168" r="2.8" fill="#9FE2FF" fill-opacity="0.82"/>
  <circle cx="224" cy="122" r="2.8" fill="#B4BFFF" fill-opacity="0.82"/>
</svg>
