<svg width="420" height="260" viewBox="0 0 420 260" fill="none" xmlns="http://www.w3.org/2000/svg">
  <defs>
    <radialGradient id="sigA-core" cx="0" cy="0" r="1" gradientUnits="userSpaceOnUse" gradientTransform="translate(286 146) rotate(90) scale(86 112)">
      <stop offset="0" stop-color="#FFD4A8" stop-opacity="0.82"/>
      <stop offset="0.54" stop-color="#FF9B7C" stop-opacity="0.46"/>
      <stop offset="1" stop-color="#A95A90" stop-opacity="0"/>
    </radialGradient>
    <linearGradient id="sigA-wave" x1="176" y1="132" x2="400" y2="168" gradientUnits="userSpaceOnUse">
      <stop offset="0" stop-color="#FFE9CC"/>
      <stop offset="0.5" stop-color="#FFAF78"/>
      <stop offset="1" stop-color="#B35F96"/>
    </linearGradient>
  </defs>

  <ellipse cx="286" cy="146" rx="132" ry="88" fill="url(#sigA-core)"/>
  <path d="M176 164C206 134 236 194 266 162C296 130 326 188 356 154C372 136 386 136 400 126" stroke="url(#sigA-wave)" stroke-width="4.2" stroke-linecap="round"/>
  <path d="M176 138C206 118 236 154 266 140C296 126 326 154 356 140C372 132 386 132 400 118" stroke="#FFE6CD" stroke-opacity="0.68" stroke-width="1.72" stroke-linecap="round"/>

  <g fill="#FFF1DF" fill-opacity="0.84">
    <circle cx="206" cy="134" r="2.3"/>
    <circle cx="236" cy="194" r="2.3"/>
    <circle cx="266" cy="162" r="2.3"/>
    <circle cx="296" cy="130" r="2.3"/>
    <circle cx="326" cy="188" r="2.3"/>
    <circle cx="356" cy="154" r="2.3"/>
  </g>
</svg>
