<svg width="420" height="260" viewBox="0 0 420 260" fill="none" xmlns="http://www.w3.org/2000/svg">
  <defs>
    <linearGradient id="sigA-main" x1="146" y1="176" x2="408" y2="112" gradientUnits="userSpaceOnUse">
      <stop offset="0" stop-color="#36DCFF" stop-opacity="0.84"/>
      <stop offset="0.5" stop-color="#67C6FF" stop-opacity="0.95"/>
      <stop offset="0.82" stop-color="#A58FFF" stop-opacity="0.86"/>
      <stop offset="1" stop-color="#F0B172" stop-opacity="0.72"/>
    </linearGradient>
  </defs>

  <g stroke="#8FB8ED" stroke-opacity="0.24" stroke-width="1" stroke-linecap="round">
    <path d="M142 72H404"/>
    <path d="M142 106H404"/>
    <path d="M142 140H404"/>
    <path d="M142 174H404"/>
    <path d="M142 208H404"/>
  </g>

  <path d="M146 166C176 146 202 188 232 164C262 140 288 182 318 158C346 136 370 152 408 124" stroke="url(#sigA-main)" stroke-width="2.94" stroke-linecap="round" fill="none"/>
  <path d="M146 134C176 118 202 146 232 136C262 126 288 146 318 136C346 126 372 136 408 106" stroke="#92D9FF" stroke-opacity="0.48" stroke-width="1.9" stroke-linecap="round" fill="none"/>
  <path d="M146 196C176 176 202 216 232 194C262 172 290 208 320 186C348 164 374 184 408 148" stroke="#A69AFF" stroke-opacity="0.46" stroke-width="1.66" stroke-linecap="round" fill="none"/>

  <g stroke="#68D8FF" stroke-opacity="0.38" stroke-width="1.02" stroke-dasharray="4 8" stroke-linecap="round">
    <path d="M232 164V206"/>
    <path d="M318 158V204"/>
    <path d="M202 188V220"/>
    <path d="M290 208V228"/>
  </g>

  <g fill="#E0F6FF" fill-opacity="0.84">
    <circle cx="202" cy="188" r="2.7"/>
    <circle cx="232" cy="164" r="2.7"/>
    <circle cx="290" cy="208" r="2.7"/>
    <circle cx="318" cy="158" r="2.7"/>
  </g>
</svg>
